<svg width="20" height="20" viewBox="0 0 20 20" fill="none" xmlns="http://www.w3.org/2000/svg">
<path d="M15.8333 9.16669H4.16667C3.24619 9.16669 2.5 9.91288 2.5 10.8334V16.6667C2.5 17.5872 3.24619 18.3334 4.16667 18.3334H15.8333C16.7538 18.3334 17.5 17.5872 17.5 16.6667V10.8334C17.5 9.91288 16.7538 9.16669 15.8333 9.16669Z" stroke="white" stroke-linecap="round" stroke-linejoin="round"/>
<path d="M5.83331 9.16669V5.83335C5.83331 4.72828 6.2723 3.66848 7.0537 2.88708C7.8351 2.10567 8.89491 1.66669 9.99998 1.66669C11.105 1.66669 12.1649 2.10567 12.9463 2.88708C13.7277 3.66848 14.1666 4.72828 14.1666 5.83335V9.16669" stroke="white" stroke-linecap="round" stroke-linejoin="round"/>
</svg>
